<?xml version="1.0" standalone="no"?>
<!DOCTYPE svg PUBLIC "-//W3C//DTD SVG 20010904//EN"
 "http://www.w3.org/TR/2001/REC-SVG-20010904/DTD/svg10.dtd">
<svg version="1.0" xmlns="http://www.w3.org/2000/svg"
 width="600px" height="600px" viewBox="0 0 600 600"
 preserveAspectRatio="xMidYMid meet">

<g transform="translate(0.000000,600.000000) scale(0.100000,-0.100000)"
fill="#39e29d" stroke="none">
<path d="M3159 5605 c-54 -104 -109 -219 -124 -255 -15 -36 -217 -366 -448
-735 -498 -793 -459 -728 -451 -748 3 -9 28 -32 55 -52 27 -19 60 -53 74 -75
18 -29 41 -47 78 -64 46 -20 97 -70 97 -93 0 -29 56 -84 114 -113 43 -22 80
-50 106 -82 23 -26 47 -48 54 -48 6 0 131 169 275 375 145 207 265 374 267
372 3 -2 -3 -248 -13 -546 -13 -419 -14 -547 -5 -562 7 -10 12 -41 12 -68 0
-58 7 -81 25 -81 8 0 15 -13 17 -31 3 -29 8 -33 63 -50 90 -28 165 -77 203
-133 46 -68 40 -78 -15 -24 -60 57 -100 78 -183 94 -56 11 -67 11 -76 -2 -10
-12 -13 -12 -24 1 -22 27 -54 18 -74 -20 -11 -20 -39 -54 -63 -75 -58 -54 -89
-55 -253 -10 -144 40 -233 53 -305 44 l-60 -8 75 -8 c84 -9 150 -30 172 -56 9
-9 18 -37 21 -61 8 -66 51 -118 152 -185 115 -76 260 -221 303 -303 30 -56 33
-72 42 -205 12 -182 12 -507 0 -758 -5 -107 -12 -247 -15 -310 l-5 -115 20 74
c25 94 54 141 129 216 64 63 70 75 46 95 -21 18 -19 63 6 94 52 66 95 3 86
-126 -4 -59 -2 -81 11 -99 8 -12 23 -38 32 -57 l17 -35 23 42 c33 57 45 39 44
-62 -1 -113 -24 -168 -159 -382 -29 -46 139 120 212 210 39 49 88 127 124 200
l60 120 -7 480 c-6 436 -5 484 10 520 20 48 53 85 76 85 21 0 63 -45 88 -95
42 -84 93 -222 107 -292 50 -240 -33 -584 -199 -826 -29 -42 -46 -78 -46 -96
0 -46 -37 -153 -70 -203 -44 -67 -153 -166 -280 -255 -60 -42 -108 -78 -106
-81 8 -7 253 99 331 145 247 143 402 336 489 612 87 274 110 504 140 1366 l5
130 -54 -112 c-30 -62 -58 -113 -63 -113 -20 0 -106 66 -150 116 -100 112
-183 280 -276 559 l-53 160 -11 840 c-11 822 -11 841 8 895 11 30 19 72 20 92
0 36 -3 39 -120 119 -336 230 -469 445 -483 784 l-2 60 -96 -190z m726 -2925
c20 -47 39 -91 42 -97 3 -9 -6 -13 -30 -13 -48 0 -84 18 -91 44 -13 47 -18
158 -11 232 l7 79 23 -80 c13 -44 40 -118 60 -165z m105 -237 c38 -72 127
-179 219 -264 77 -71 82 -78 64 -88 -11 -5 -37 -8 -57 -4 -29 5 -52 22 -113
87 -89 94 -155 181 -189 248 -22 44 -23 48 -6 57 36 21 56 12 82 -36z m38
-271 c23 -4 23 -3 6 25 -14 21 -4 15 36 -22 30 -27 61 -57 68 -67 14 -19 1
-15 -139 40 -27 11 -39 36 -39 87 0 28 1 27 23 -15 15 -31 29 -46 45 -48z m92
-97 c25 -13 58 -36 73 -52 23 -25 26 -34 18 -54 -11 -29 -27 -44 -62 -58 -22
-8 -32 -5 -60 18 -19 16 -45 47 -57 70 l-24 42 38 -20 c47 -25 54 -26 54 -5 0
16 -50 70 -85 91 -35 21 55 -7 105 -32z"/>
<path d="M2002 3603 c-109 -217 -218 -393 -450 -722 -130 -184 -142 -214 -154
-370 -15 -181 22 -1101 44 -1101 4 0 8 6 8 14 0 36 56 200 95 281 109 222 263
354 528 450 l98 35 32 -24 c64 -47 99 -60 172 -60 81 0 141 19 236 75 77 46
112 49 231 18 44 -11 82 -18 84 -17 5 6 -96 83 -133 102 -40 20 -121 21 -196
1 -81 -21 -90 -20 -168 21 -73 39 -174 136 -185 178 -4 17 4 37 30 73 19 27
53 79 75 117 39 67 39 69 25 108 -17 50 -18 89 0 154 17 64 16 66 -89 174 -99
102 -116 131 -108 188 12 93 -35 326 -85 419 l-17 33 -73 -147z"/>
<path d="M2338 3346 c5 -85 22 -124 62 -151 45 -29 90 -104 90 -148 0 -21 4
-37 9 -37 9 0 123 169 142 213 11 25 10 30 -15 56 -34 35 -94 66 -170 85 -32
9 -73 24 -91 35 l-32 19 5 -72z"/>
</g>
</svg>
